<svg width="36" height="36" viewBox="0 0 36 36" fill="none" xmlns="http://www.w3.org/2000/svg">
<g filter="url(#filter0_b_1_175)">
<circle cx="18" cy="18" r="18" fill="#070721" fill-opacity="0.3"/>
</g>
<path fill-rule="evenodd" clip-rule="evenodd" d="M22.3677 11.761C21.0191 11.3284 19.3891 11.667 18.5641 12.9183C18.4512 13.0896 18.2613 13.1946 18.0562 13.1992C17.851 13.2037 17.6567 13.1073 17.5363 12.9412C16.6373 11.7012 15.033 11.3336 13.7093 11.7608L13.7088 11.7609C11.2184 12.5625 10.2012 15.593 11.0299 18.1809C11.6964 20.2549 13.1539 21.8376 14.6355 22.9092C15.3738 23.4432 16.1064 23.8415 16.7272 24.1042C17.3685 24.3756 17.8303 24.4768 18.0423 24.4768C18.2526 24.4768 18.7161 24.3736 19.3621 24.0977C19.9867 23.831 20.7238 23.4277 21.4651 22.8902C22.9537 21.8109 24.4081 20.2289 25.0511 18.1843L25.052 18.1813C25.8798 15.5945 24.8582 12.563 22.3677 11.761ZM18.0249 11.6055C19.2987 10.3106 21.2359 10.085 22.7499 10.5709L22.7505 10.5711C26.1193 11.6557 27.2011 15.5646 26.243 18.5608C25.4942 20.9405 23.8252 22.723 22.1989 23.9022C21.3826 24.494 20.5642 24.9436 19.8531 25.2473C19.1633 25.5419 18.5107 25.7268 18.0423 25.7268C17.576 25.7268 16.9275 25.5463 16.24 25.2554C15.5319 24.9557 14.717 24.5109 13.9029 23.922C12.2795 22.7478 10.6117 20.9655 9.83977 18.563L9.8396 18.5625C8.88019 15.5671 9.95464 11.6562 13.3257 10.5711M18.0249 11.6055C16.7341 10.3651 14.862 10.0755 13.3258 10.571L18.0249 11.6055Z" fill="#070721"/>
<path fill-rule="evenodd" clip-rule="evenodd" d="M20.5353 14.2394C20.5706 13.896 20.8775 13.6463 21.2209 13.6815C21.8813 13.7494 22.4479 14.0521 22.8373 14.5445C23.2226 15.0317 23.402 15.6625 23.3792 16.3426C23.3676 16.6876 23.0786 16.9578 22.7336 16.9463C22.3886 16.9347 22.1183 16.6456 22.1299 16.3006C22.1446 15.8632 22.0282 15.5365 21.8568 15.3198C21.6895 15.1082 21.4386 14.9605 21.0932 14.925C20.7498 14.8897 20.5 14.5828 20.5353 14.2394Z" fill="#070721"/>
<defs>
<filter id="filter0_b_1_175" x="-12" y="-12" width="60" height="60" filterUnits="userSpaceOnUse" color-interpolation-filters="sRGB">
<feFlood flood-opacity="0" result="BackgroundImageFix"/>
<feGaussianBlur in="BackgroundImage" stdDeviation="6"/>
<feComposite in2="SourceAlpha" operator="in" result="effect1_backgroundBlur_1_175"/>
<feBlend mode="normal" in="SourceGraphic" in2="effect1_backgroundBlur_1_175" result="shape"/>
</filter>
</defs>
</svg>
